<?xml version="1.0" encoding="UTF-8" standalone="no"?>
<!DOCTYPE svg PUBLIC "-//W3C//DTD SVG 1.1//EN" "http://www.w3.org/Graphics/SVG/1.1/DTD/svg11.dtd">
<svg width="100%" height="100%" viewBox="0 0 560 100" version="1.1" xmlns="http://www.w3.org/2000/svg" xmlns:xlink="http://www.w3.org/1999/xlink" xml:space="preserve" xmlns:serif="http://www.serif.com/" style="fill-rule:evenodd;clip-rule:evenodd;stroke-linecap:round;stroke-linejoin:round;stroke-miterlimit:2;">
    <circle cx="50" cy="50" r="50" style="fill:#fff;"/>
    <g id="FUCLASSICS_logo_DORIC" transform="matrix(0.19,0,0,0.19,50,50)">
        <g transform="matrix(1,0,0,1,-250,-250)">
            <clipPath id="_clip1">
                <rect x="0" y="0" width="500" height="500"/>
            </clipPath>
            <g clip-path="url(#_clip1)">
                <g>
                    <g>
                        <clipPath id="_clip2">
                            <path d="M250,0.08C387.979,0.08 500,112.101 500,250.08C500,388.059 387.979,500.08 250,500.08C112.021,500.08 0,388.059 0,250.08C0,112.101 112.021,0.08 250,0.08Z"/>
                        </clipPath>
                        <g clip-path="url(#_clip2)">
                            <path d="M334.72,211.4L338.687,487.306M306.16,211.4L307.84,499.34M271.12,211.4L271.36,503.92M352.24,211.4L356.08,482.316M166,211.4L162.033,487.306M194.56,211.4L192.88,499.34M229.6,211.4L229.36,503.92M148.48,211.4L144.64,482.316" style="fill:#4e2984;"/>
                            <path d="M334.72,211.4L338.687,487.306M306.16,211.4L307.84,499.34M271.12,211.4L271.36,503.92M352.24,211.4L356.08,482.316M166,211.4L162.033,487.306M194.56,211.4L192.88,499.34M229.6,211.4L229.36,503.92M148.48,211.4L144.64,482.316" style="fill:none;stroke:#4e2984;stroke-width:5px;"/>
                        </g>
                    </g>
                    <path d="M133.05,471.055C53.934,429.062 0,345.82 0,250.08C0,112.101 112.021,0.08 250,0.08C387.979,0.08 500,112.101 500,250.08C500,346.454 445.35,430.164 365.375,471.884L358.72,211.424L138.4,211.424L133.05,471.055ZM398.8,174.2L103.6,174.2L138.16,206.6L359.2,206.6L398.8,174.2ZM401.44,116.84L100.96,116.84L100.96,168.92L401.44,168.92L401.44,116.84Z" style="fill:#4e2984;"/>
                </g>
            </g>
        </g>
    </g>
    <g transform="matrix(1,0,0,1,-1.36336,21)">
        <g transform="matrix(33.3333,0,0,33.3333,123,41.9837)">
            <path d="M0.207,-0.554L0.207,-0.406L0.381,-0.406C0.397,-0.406 0.406,-0.404 0.41,-0.4C0.414,-0.396 0.416,-0.386 0.416,-0.371L0.416,-0.328C0.416,-0.312 0.414,-0.303 0.41,-0.299C0.406,-0.295 0.397,-0.293 0.381,-0.293L0.207,-0.293L0.207,-0.034C0.207,-0.019 0.205,-0.01 0.201,-0.006C0.197,-0.002 0.187,0 0.172,0L0.111,0C0.096,0 0.086,-0.002 0.083,-0.006C0.079,-0.01 0.077,-0.019 0.077,-0.034L0.077,-0.632C0.077,-0.647 0.079,-0.657 0.083,-0.661C0.086,-0.665 0.096,-0.667 0.111,-0.667L0.396,-0.667C0.41,-0.667 0.42,-0.664 0.424,-0.66C0.428,-0.656 0.43,-0.647 0.43,-0.632L0.43,-0.588C0.43,-0.573 0.428,-0.563 0.424,-0.56C0.42,-0.556 0.411,-0.554 0.396,-0.554L0.207,-0.554Z" style="fill:#fff;fill-rule:nonzero;"/>
        </g>
        <g transform="matrix(33.3333,0,0,33.3333,138.56,41.9837)">
            <path d="M0.207,-0.632L0.207,-0.285C0.207,-0.251 0.208,-0.226 0.211,-0.211C0.213,-0.195 0.219,-0.18 0.228,-0.166C0.239,-0.146 0.255,-0.131 0.276,-0.12C0.297,-0.109 0.32,-0.104 0.345,-0.104C0.37,-0.104 0.393,-0.109 0.414,-0.12C0.434,-0.131 0.451,-0.146 0.462,-0.166C0.47,-0.18 0.476,-0.195 0.479,-0.211C0.482,-0.226 0.483,-0.251 0.483,-0.285L0.483,-0.632C0.483,-0.647 0.485,-0.657 0.489,-0.661C0.493,-0.665 0.502,-0.667 0.517,-0.667L0.578,-0.667C0.593,-0.667 0.603,-0.665 0.607,-0.661C0.611,-0.657 0.613,-0.647 0.613,-0.632L0.613,-0.259C0.613,-0.183 0.597,-0.124 0.564,-0.081C0.539,-0.048 0.505,-0.023 0.462,-0.007C0.425,0.008 0.386,0.015 0.345,0.015C0.283,0.015 0.229,0 0.182,-0.03C0.134,-0.06 0.103,-0.103 0.088,-0.157C0.081,-0.185 0.077,-0.219 0.077,-0.259L0.077,-0.632C0.077,-0.647 0.079,-0.657 0.083,-0.661C0.086,-0.665 0.096,-0.667 0.111,-0.667L0.172,-0.667C0.187,-0.667 0.197,-0.665 0.201,-0.661C0.205,-0.657 0.207,-0.647 0.207,-0.632Z" style="fill:#fff;fill-rule:nonzero;"/>
        </g>
        <g transform="matrix(33.3333,0,0,33.3333,161.542,41.9837)">
            <path d="M0.354,-0.281L0.531,-0.044C0.539,-0.033 0.543,-0.025 0.543,-0.02C0.543,-0.012 0.541,-0.007 0.536,-0.004C0.53,-0.001 0.521,0 0.509,0L0.428,0C0.415,0 0.407,-0.001 0.405,-0.002C0.402,-0.004 0.397,-0.01 0.39,-0.021L0.223,-0.268L0.207,-0.268L0.207,-0.035C0.207,-0.019 0.205,-0.01 0.201,-0.006C0.197,-0.002 0.187,0 0.172,0L0.111,0C0.096,0 0.086,-0.002 0.083,-0.006C0.079,-0.01 0.077,-0.019 0.077,-0.035L0.077,-0.632C0.077,-0.647 0.079,-0.657 0.083,-0.661C0.086,-0.665 0.096,-0.667 0.111,-0.667L0.27,-0.667C0.345,-0.667 0.402,-0.651 0.44,-0.619C0.46,-0.603 0.477,-0.581 0.488,-0.554C0.5,-0.527 0.506,-0.499 0.506,-0.469C0.506,-0.44 0.5,-0.412 0.49,-0.386C0.479,-0.36 0.464,-0.339 0.446,-0.322C0.422,-0.302 0.391,-0.289 0.354,-0.281ZM0.207,-0.36L0.244,-0.36C0.283,-0.36 0.313,-0.367 0.333,-0.381C0.345,-0.389 0.354,-0.4 0.361,-0.415C0.368,-0.429 0.372,-0.445 0.372,-0.461C0.372,-0.494 0.361,-0.519 0.34,-0.536C0.319,-0.553 0.287,-0.561 0.246,-0.561L0.207,-0.561L0.207,-0.36Z" style="fill:#fff;fill-rule:nonzero;"/>
        </g>
        <g transform="matrix(33.3333,0,0,33.3333,180.715,41.9837)">
            <path d="M0.436,-0.243L0.615,-0.654C0.62,-0.667 0.625,-0.674 0.628,-0.676C0.631,-0.678 0.64,-0.679 0.653,-0.679L0.684,-0.679C0.698,-0.679 0.707,-0.678 0.711,-0.675C0.715,-0.671 0.718,-0.663 0.72,-0.648L0.82,-0.038C0.821,-0.028 0.822,-0.022 0.822,-0.02C0.822,-0.012 0.82,-0.007 0.815,-0.004C0.81,-0.001 0.801,0 0.788,0L0.727,0C0.712,0 0.703,-0.002 0.699,-0.005C0.696,-0.008 0.693,-0.017 0.691,-0.031L0.636,-0.411L0.463,-0.016C0.462,-0.014 0.461,-0.011 0.459,-0.008C0.455,0.003 0.446,0.009 0.434,0.009C0.426,0.009 0.42,0.008 0.418,0.005C0.415,0.003 0.411,-0.005 0.406,-0.017L0.239,-0.411L0.177,-0.031C0.177,-0.027 0.176,-0.024 0.176,-0.022C0.174,-0.013 0.171,-0.007 0.167,-0.004C0.163,-0.001 0.154,0 0.141,0L0.08,0C0.067,0 0.058,-0.001 0.053,-0.004C0.048,-0.007 0.046,-0.012 0.046,-0.02C0.046,-0.023 0.047,-0.029 0.048,-0.038L0.16,-0.648C0.163,-0.663 0.166,-0.671 0.169,-0.675C0.173,-0.678 0.182,-0.679 0.197,-0.679L0.227,-0.679C0.24,-0.679 0.249,-0.678 0.252,-0.676C0.255,-0.674 0.26,-0.667 0.265,-0.654L0.436,-0.243Z" style="fill:#fff;fill-rule:nonzero;"/>
        </g>
        <g transform="matrix(33.3333,0,0,33.3333,209.637,41.9837)">
            <path d="M0.472,-0.141L0.2,-0.141L0.15,-0.025C0.145,-0.013 0.14,-0.005 0.137,-0.003C0.134,-0.001 0.126,0 0.112,0L0.046,0C0.035,0 0.027,-0.001 0.023,-0.002C0.016,-0.006 0.012,-0.011 0.012,-0.019C0.012,-0.023 0.014,-0.03 0.019,-0.042L0.28,-0.655C0.281,-0.659 0.282,-0.661 0.283,-0.664C0.286,-0.671 0.289,-0.676 0.293,-0.678C0.297,-0.68 0.305,-0.681 0.318,-0.681L0.36,-0.681C0.374,-0.681 0.382,-0.68 0.386,-0.677C0.389,-0.675 0.393,-0.667 0.398,-0.655L0.652,-0.042C0.656,-0.03 0.659,-0.023 0.659,-0.019C0.659,-0.012 0.656,-0.007 0.651,-0.004C0.646,-0.001 0.637,0 0.625,0L0.557,0C0.543,0 0.535,-0.001 0.531,-0.003C0.528,-0.006 0.524,-0.013 0.519,-0.026L0.472,-0.141ZM0.432,-0.246L0.338,-0.486L0.241,-0.246L0.432,-0.246Z" style="fill:#fff;fill-rule:nonzero;"/>
        </g>
        <g transform="matrix(33.3333,0,0,33.3333,231.968,41.9837)">
            <path d="M0.573,-0.218L0.573,-0.632C0.573,-0.647 0.575,-0.657 0.579,-0.661C0.583,-0.665 0.592,-0.667 0.607,-0.667L0.668,-0.667C0.683,-0.667 0.693,-0.665 0.697,-0.661C0.701,-0.657 0.703,-0.647 0.703,-0.632L0.703,-0.021C0.703,-0.006 0.701,0.003 0.697,0.007C0.693,0.011 0.683,0.013 0.668,0.013L0.636,0.013C0.624,0.013 0.616,0.013 0.614,0.011C0.611,0.01 0.606,0.005 0.598,-0.004L0.207,-0.451L0.207,-0.035C0.207,-0.019 0.205,-0.01 0.201,-0.006C0.197,-0.002 0.187,0 0.172,0L0.111,0C0.096,0 0.086,-0.002 0.083,-0.006C0.079,-0.01 0.077,-0.019 0.077,-0.035L0.077,-0.647C0.077,-0.663 0.079,-0.672 0.083,-0.676C0.086,-0.68 0.096,-0.682 0.111,-0.682L0.144,-0.682C0.156,-0.682 0.163,-0.682 0.166,-0.68C0.168,-0.679 0.174,-0.674 0.182,-0.665L0.573,-0.218Z" style="fill:#fff;fill-rule:nonzero;"/>
        </g>
        <g transform="matrix(33.3333,0,0,33.3333,266.278,41.9837)">
            <path d="M0.559,-0.614L0.559,-0.545C0.559,-0.523 0.554,-0.511 0.543,-0.511C0.54,-0.511 0.528,-0.518 0.506,-0.532C0.475,-0.553 0.44,-0.563 0.4,-0.563C0.33,-0.563 0.273,-0.537 0.23,-0.484C0.195,-0.442 0.177,-0.391 0.177,-0.331C0.177,-0.26 0.201,-0.203 0.25,-0.16C0.292,-0.122 0.341,-0.104 0.396,-0.104C0.422,-0.104 0.446,-0.107 0.468,-0.114C0.489,-0.121 0.51,-0.132 0.532,-0.147C0.537,-0.151 0.541,-0.153 0.544,-0.153C0.554,-0.153 0.559,-0.141 0.559,-0.118L0.559,-0.051C0.559,-0.04 0.558,-0.034 0.557,-0.031C0.557,-0.027 0.555,-0.024 0.551,-0.021C0.55,-0.02 0.547,-0.018 0.543,-0.017C0.493,0.005 0.444,0.015 0.396,0.015C0.334,0.015 0.276,0 0.222,-0.029C0.161,-0.063 0.115,-0.109 0.083,-0.167C0.057,-0.217 0.043,-0.271 0.043,-0.33C0.043,-0.393 0.059,-0.451 0.09,-0.505C0.122,-0.562 0.167,-0.606 0.224,-0.638C0.278,-0.667 0.335,-0.682 0.396,-0.682C0.45,-0.682 0.499,-0.671 0.543,-0.648C0.55,-0.645 0.555,-0.641 0.556,-0.638C0.558,-0.634 0.559,-0.626 0.559,-0.614Z" style="fill:#fff;fill-rule:nonzero;"/>
        </g>
        <g transform="matrix(33.3333,0,0,33.3333,286.346,41.9837)">
            <path d="M0.207,-0.113L0.377,-0.113C0.393,-0.113 0.402,-0.111 0.406,-0.107C0.41,-0.103 0.412,-0.093 0.412,-0.078L0.412,-0.035C0.412,-0.019 0.41,-0.01 0.406,-0.006C0.402,-0.002 0.393,0 0.377,0L0.111,0C0.096,0 0.086,-0.002 0.083,-0.006C0.079,-0.01 0.077,-0.019 0.077,-0.035L0.077,-0.632C0.077,-0.647 0.079,-0.657 0.083,-0.661C0.086,-0.665 0.096,-0.667 0.111,-0.667L0.172,-0.667C0.187,-0.667 0.197,-0.665 0.201,-0.661C0.205,-0.657 0.207,-0.647 0.207,-0.632L0.207,-0.113Z" style="fill:#fff;fill-rule:nonzero;"/>
        </g>
        <g transform="matrix(33.3333,0,0,33.3333,301.499,41.9837)">
            <path d="M0.472,-0.141L0.2,-0.141L0.15,-0.025C0.145,-0.013 0.14,-0.005 0.137,-0.003C0.134,-0.001 0.126,0 0.112,0L0.046,0C0.035,0 0.027,-0.001 0.023,-0.002C0.016,-0.006 0.012,-0.011 0.012,-0.019C0.012,-0.023 0.014,-0.03 0.019,-0.042L0.28,-0.655C0.281,-0.659 0.282,-0.661 0.283,-0.664C0.286,-0.671 0.289,-0.676 0.293,-0.678C0.297,-0.68 0.305,-0.681 0.318,-0.681L0.36,-0.681C0.374,-0.681 0.382,-0.68 0.386,-0.677C0.389,-0.675 0.393,-0.667 0.398,-0.655L0.652,-0.042C0.656,-0.03 0.659,-0.023 0.659,-0.019C0.659,-0.012 0.656,-0.007 0.651,-0.004C0.646,-0.001 0.637,0 0.625,0L0.557,0C0.543,0 0.535,-0.001 0.531,-0.003C0.528,-0.006 0.524,-0.013 0.519,-0.026L0.472,-0.141ZM0.432,-0.246L0.338,-0.486L0.241,-0.246L0.432,-0.246Z" style="fill:#fff;fill-rule:nonzero;"/>
        </g>
        <g transform="matrix(33.3333,0,0,33.3333,323.83,41.9837)">
            <path d="M0.45,-0.578L0.425,-0.545C0.415,-0.532 0.407,-0.526 0.4,-0.526C0.396,-0.526 0.393,-0.527 0.391,-0.528C0.388,-0.53 0.381,-0.536 0.369,-0.546C0.362,-0.552 0.35,-0.557 0.335,-0.562C0.32,-0.566 0.307,-0.568 0.294,-0.568C0.265,-0.568 0.242,-0.56 0.224,-0.544C0.208,-0.53 0.2,-0.513 0.2,-0.494C0.2,-0.476 0.207,-0.461 0.221,-0.449C0.236,-0.438 0.262,-0.425 0.301,-0.411C0.338,-0.397 0.366,-0.386 0.384,-0.377C0.403,-0.367 0.419,-0.356 0.435,-0.344C0.474,-0.311 0.494,-0.264 0.494,-0.204C0.494,-0.132 0.468,-0.075 0.418,-0.035C0.376,-0.001 0.323,0.016 0.261,0.016C0.211,0.016 0.166,0.004 0.125,-0.021C0.103,-0.034 0.083,-0.049 0.066,-0.067C0.048,-0.085 0.039,-0.099 0.039,-0.108C0.039,-0.114 0.044,-0.122 0.055,-0.132L0.088,-0.165C0.099,-0.175 0.107,-0.18 0.112,-0.18C0.119,-0.18 0.125,-0.177 0.13,-0.17C0.145,-0.152 0.155,-0.141 0.159,-0.137C0.163,-0.133 0.17,-0.128 0.18,-0.123C0.205,-0.109 0.23,-0.103 0.257,-0.103C0.291,-0.103 0.317,-0.113 0.336,-0.135C0.352,-0.153 0.36,-0.173 0.36,-0.196C0.36,-0.224 0.348,-0.246 0.323,-0.264C0.312,-0.272 0.281,-0.285 0.231,-0.304C0.18,-0.322 0.143,-0.341 0.119,-0.362C0.084,-0.391 0.066,-0.432 0.066,-0.483C0.066,-0.554 0.096,-0.607 0.154,-0.645C0.189,-0.667 0.23,-0.678 0.275,-0.678C0.307,-0.678 0.339,-0.672 0.373,-0.661C0.406,-0.65 0.433,-0.635 0.454,-0.617C0.46,-0.613 0.462,-0.607 0.462,-0.601C0.462,-0.596 0.458,-0.588 0.45,-0.578Z" style="fill:#fff;fill-rule:nonzero;"/>
        </g>
        <g transform="matrix(33.3333,0,0,33.3333,341.571,41.9837)">
            <path d="M0.45,-0.578L0.425,-0.545C0.415,-0.532 0.407,-0.526 0.4,-0.526C0.396,-0.526 0.393,-0.527 0.391,-0.528C0.388,-0.53 0.381,-0.536 0.369,-0.546C0.362,-0.552 0.35,-0.557 0.335,-0.562C0.32,-0.566 0.307,-0.568 0.294,-0.568C0.265,-0.568 0.242,-0.56 0.224,-0.544C0.208,-0.53 0.2,-0.513 0.2,-0.494C0.2,-0.476 0.207,-0.461 0.221,-0.449C0.236,-0.438 0.262,-0.425 0.301,-0.411C0.338,-0.397 0.366,-0.386 0.384,-0.377C0.403,-0.367 0.419,-0.356 0.435,-0.344C0.474,-0.311 0.494,-0.264 0.494,-0.204C0.494,-0.132 0.468,-0.075 0.418,-0.035C0.376,-0.001 0.323,0.016 0.261,0.016C0.211,0.016 0.166,0.004 0.125,-0.021C0.103,-0.034 0.083,-0.049 0.066,-0.067C0.048,-0.085 0.039,-0.099 0.039,-0.108C0.039,-0.114 0.044,-0.122 0.055,-0.132L0.088,-0.165C0.099,-0.175 0.107,-0.18 0.112,-0.18C0.119,-0.18 0.125,-0.177 0.13,-0.17C0.145,-0.152 0.155,-0.141 0.159,-0.137C0.163,-0.133 0.17,-0.128 0.18,-0.123C0.205,-0.109 0.23,-0.103 0.257,-0.103C0.291,-0.103 0.317,-0.113 0.336,-0.135C0.352,-0.153 0.36,-0.173 0.36,-0.196C0.36,-0.224 0.348,-0.246 0.323,-0.264C0.312,-0.272 0.281,-0.285 0.231,-0.304C0.18,-0.322 0.143,-0.341 0.119,-0.362C0.084,-0.391 0.066,-0.432 0.066,-0.483C0.066,-0.554 0.096,-0.607 0.154,-0.645C0.189,-0.667 0.23,-0.678 0.275,-0.678C0.307,-0.678 0.339,-0.672 0.373,-0.661C0.406,-0.65 0.433,-0.635 0.454,-0.617C0.46,-0.613 0.462,-0.607 0.462,-0.601C0.462,-0.596 0.458,-0.588 0.45,-0.578Z" style="fill:#fff;fill-rule:nonzero;"/>
        </g>
        <g transform="matrix(33.3333,0,0,33.3333,359.312,41.9837)">
            <path d="M0.207,-0.632L0.207,-0.035C0.207,-0.019 0.205,-0.01 0.201,-0.006C0.197,-0.002 0.187,0 0.172,0L0.111,0C0.096,0 0.086,-0.002 0.083,-0.006C0.079,-0.01 0.077,-0.019 0.077,-0.035L0.077,-0.632C0.077,-0.647 0.079,-0.657 0.083,-0.661C0.086,-0.665 0.096,-0.667 0.111,-0.667L0.172,-0.667C0.187,-0.667 0.197,-0.665 0.201,-0.661C0.205,-0.657 0.207,-0.647 0.207,-0.632Z" style="fill:#fff;fill-rule:nonzero;"/>
        </g>
        <g transform="matrix(33.3333,0,0,33.3333,368.752,41.9837)">
            <path d="M0.559,-0.614L0.559,-0.545C0.559,-0.523 0.554,-0.511 0.543,-0.511C0.54,-0.511 0.528,-0.518 0.506,-0.532C0.475,-0.553 0.44,-0.563 0.4,-0.563C0.33,-0.563 0.273,-0.537 0.23,-0.484C0.195,-0.442 0.177,-0.391 0.177,-0.331C0.177,-0.26 0.201,-0.203 0.25,-0.16C0.292,-0.122 0.341,-0.104 0.396,-0.104C0.422,-0.104 0.446,-0.107 0.468,-0.114C0.489,-0.121 0.51,-0.132 0.532,-0.147C0.537,-0.151 0.541,-0.153 0.544,-0.153C0.554,-0.153 0.559,-0.141 0.559,-0.118L0.559,-0.051C0.559,-0.04 0.558,-0.034 0.557,-0.031C0.557,-0.027 0.555,-0.024 0.551,-0.021C0.55,-0.02 0.547,-0.018 0.543,-0.017C0.493,0.005 0.444,0.015 0.396,0.015C0.334,0.015 0.276,0 0.222,-0.029C0.161,-0.063 0.115,-0.109 0.083,-0.167C0.057,-0.217 0.043,-0.271 0.043,-0.33C0.043,-0.393 0.059,-0.451 0.09,-0.505C0.122,-0.562 0.167,-0.606 0.224,-0.638C0.278,-0.667 0.335,-0.682 0.396,-0.682C0.45,-0.682 0.499,-0.671 0.543,-0.648C0.55,-0.645 0.555,-0.641 0.556,-0.638C0.558,-0.634 0.559,-0.626 0.559,-0.614Z" style="fill:#fff;fill-rule:nonzero;"/>
        </g>
        <g transform="matrix(33.3333,0,0,33.3333,388.82,41.9837)">
            <path d="M0.45,-0.578L0.425,-0.545C0.415,-0.532 0.407,-0.526 0.4,-0.526C0.396,-0.526 0.393,-0.527 0.391,-0.528C0.388,-0.53 0.381,-0.536 0.369,-0.546C0.362,-0.552 0.35,-0.557 0.335,-0.562C0.32,-0.566 0.307,-0.568 0.294,-0.568C0.265,-0.568 0.242,-0.56 0.224,-0.544C0.208,-0.53 0.2,-0.513 0.2,-0.494C0.2,-0.476 0.207,-0.461 0.221,-0.449C0.236,-0.438 0.262,-0.425 0.301,-0.411C0.338,-0.397 0.366,-0.386 0.384,-0.377C0.403,-0.367 0.419,-0.356 0.435,-0.344C0.474,-0.311 0.494,-0.264 0.494,-0.204C0.494,-0.132 0.468,-0.075 0.418,-0.035C0.376,-0.001 0.323,0.016 0.261,0.016C0.211,0.016 0.166,0.004 0.125,-0.021C0.103,-0.034 0.083,-0.049 0.066,-0.067C0.048,-0.085 0.039,-0.099 0.039,-0.108C0.039,-0.114 0.044,-0.122 0.055,-0.132L0.088,-0.165C0.099,-0.175 0.107,-0.18 0.112,-0.18C0.119,-0.18 0.125,-0.177 0.13,-0.17C0.145,-0.152 0.155,-0.141 0.159,-0.137C0.163,-0.133 0.17,-0.128 0.18,-0.123C0.205,-0.109 0.23,-0.103 0.257,-0.103C0.291,-0.103 0.317,-0.113 0.336,-0.135C0.352,-0.153 0.36,-0.173 0.36,-0.196C0.36,-0.224 0.348,-0.246 0.323,-0.264C0.312,-0.272 0.281,-0.285 0.231,-0.304C0.18,-0.322 0.143,-0.341 0.119,-0.362C0.084,-0.391 0.066,-0.432 0.066,-0.483C0.066,-0.554 0.096,-0.607 0.154,-0.645C0.189,-0.667 0.23,-0.678 0.275,-0.678C0.307,-0.678 0.339,-0.672 0.373,-0.661C0.406,-0.65 0.433,-0.635 0.454,-0.617C0.46,-0.613 0.462,-0.607 0.462,-0.601C0.462,-0.596 0.458,-0.588 0.45,-0.578Z" style="fill:#fff;fill-rule:nonzero;"/>
        </g>
        <g transform="matrix(33.3333,0,0,33.3333,414.895,41.9837)">
            <path d="M0.207,-0.554L0.207,-0.406L0.402,-0.406C0.417,-0.406 0.427,-0.404 0.431,-0.4C0.435,-0.396 0.437,-0.386 0.437,-0.371L0.437,-0.328C0.437,-0.312 0.435,-0.303 0.431,-0.299C0.427,-0.295 0.417,-0.293 0.402,-0.293L0.207,-0.293L0.207,-0.113L0.412,-0.113C0.427,-0.113 0.436,-0.111 0.44,-0.107C0.444,-0.103 0.446,-0.093 0.446,-0.078L0.446,-0.035C0.446,-0.019 0.444,-0.01 0.44,-0.006C0.436,-0.002 0.427,0 0.412,0L0.111,0C0.096,0 0.086,-0.002 0.083,-0.006C0.079,-0.01 0.077,-0.019 0.077,-0.035L0.077,-0.632C0.077,-0.647 0.079,-0.657 0.083,-0.661C0.086,-0.665 0.096,-0.667 0.111,-0.667L0.412,-0.667C0.426,-0.667 0.436,-0.664 0.44,-0.66C0.444,-0.656 0.446,-0.647 0.446,-0.632L0.446,-0.588C0.446,-0.573 0.444,-0.563 0.44,-0.56C0.436,-0.556 0.427,-0.554 0.412,-0.554L0.207,-0.554Z" style="fill:#fff;fill-rule:nonzero;"/>
        </g>
        <g transform="matrix(33.3333,0,0,33.3333,431.382,41.9837)">
            <path d="M0.077,-0.035L0.077,-0.632C0.077,-0.647 0.079,-0.657 0.083,-0.661C0.086,-0.665 0.096,-0.667 0.111,-0.667L0.267,-0.667C0.364,-0.667 0.444,-0.641 0.507,-0.59C0.547,-0.557 0.578,-0.515 0.599,-0.466C0.617,-0.424 0.626,-0.38 0.626,-0.334C0.626,-0.265 0.606,-0.202 0.567,-0.145C0.527,-0.086 0.475,-0.045 0.411,-0.022C0.371,-0.007 0.322,0 0.266,0L0.111,0C0.096,0 0.086,-0.002 0.083,-0.006C0.079,-0.01 0.077,-0.019 0.077,-0.035ZM0.207,-0.113L0.241,-0.113C0.284,-0.113 0.319,-0.117 0.347,-0.125C0.375,-0.134 0.4,-0.147 0.42,-0.166C0.443,-0.186 0.46,-0.211 0.473,-0.24C0.486,-0.27 0.492,-0.301 0.492,-0.333C0.492,-0.378 0.48,-0.419 0.457,-0.456C0.435,-0.491 0.407,-0.515 0.374,-0.531C0.34,-0.546 0.296,-0.554 0.241,-0.554L0.207,-0.554L0.207,-0.113Z" style="fill:#fff;fill-rule:nonzero;"/>
        </g>
        <g transform="matrix(33.3333,0,0,33.3333,453.697,41.9837)">
            <path d="M0.207,-0.632L0.207,-0.035C0.207,-0.019 0.205,-0.01 0.201,-0.006C0.197,-0.002 0.187,0 0.172,0L0.111,0C0.096,0 0.086,-0.002 0.083,-0.006C0.079,-0.01 0.077,-0.019 0.077,-0.035L0.077,-0.632C0.077,-0.647 0.079,-0.657 0.083,-0.661C0.086,-0.665 0.096,-0.667 0.111,-0.667L0.172,-0.667C0.187,-0.667 0.197,-0.665 0.201,-0.661C0.205,-0.657 0.207,-0.647 0.207,-0.632Z" style="fill:#fff;fill-rule:nonzero;"/>
        </g>
        <g transform="matrix(33.3333,0,0,33.3333,463.137,41.9837)">
            <path d="M0.156,-0.554L0.042,-0.554C0.026,-0.554 0.017,-0.556 0.013,-0.56C0.009,-0.563 0.007,-0.573 0.007,-0.588L0.007,-0.632C0.007,-0.647 0.009,-0.657 0.013,-0.661C0.017,-0.665 0.026,-0.667 0.042,-0.667L0.401,-0.667C0.416,-0.667 0.426,-0.664 0.43,-0.66C0.434,-0.656 0.436,-0.647 0.436,-0.632L0.436,-0.588C0.436,-0.573 0.434,-0.563 0.43,-0.56C0.426,-0.556 0.417,-0.554 0.401,-0.554L0.286,-0.554L0.286,-0.035C0.286,-0.019 0.284,-0.01 0.28,-0.006C0.276,-0.002 0.267,0 0.251,0L0.191,0C0.176,0 0.166,-0.002 0.162,-0.006C0.158,-0.01 0.156,-0.019 0.156,-0.035L0.156,-0.554Z" style="fill:#fff;fill-rule:nonzero;"/>
        </g>
        <g transform="matrix(33.3333,0,0,33.3333,477.899,41.9837)">
            <path d="M0.207,-0.632L0.207,-0.035C0.207,-0.019 0.205,-0.01 0.201,-0.006C0.197,-0.002 0.187,0 0.172,0L0.111,0C0.096,0 0.086,-0.002 0.083,-0.006C0.079,-0.01 0.077,-0.019 0.077,-0.035L0.077,-0.632C0.077,-0.647 0.079,-0.657 0.083,-0.661C0.086,-0.665 0.096,-0.667 0.111,-0.667L0.172,-0.667C0.187,-0.667 0.197,-0.665 0.201,-0.661C0.205,-0.657 0.207,-0.647 0.207,-0.632Z" style="fill:#fff;fill-rule:nonzero;"/>
        </g>
        <g transform="matrix(33.3333,0,0,33.3333,487.339,41.9837)">
            <path d="M0.401,-0.682C0.506,-0.682 0.593,-0.644 0.663,-0.57C0.725,-0.503 0.756,-0.424 0.756,-0.333C0.756,-0.27 0.74,-0.212 0.708,-0.158C0.676,-0.103 0.632,-0.059 0.575,-0.028C0.522,0.001 0.462,0.015 0.396,0.015C0.336,0.015 0.28,0.001 0.228,-0.026C0.166,-0.059 0.119,-0.104 0.086,-0.164C0.057,-0.215 0.043,-0.273 0.043,-0.338C0.043,-0.437 0.081,-0.521 0.158,-0.591C0.197,-0.626 0.241,-0.65 0.29,-0.665C0.327,-0.676 0.364,-0.682 0.401,-0.682ZM0.4,-0.563C0.338,-0.563 0.286,-0.541 0.243,-0.496C0.199,-0.45 0.177,-0.395 0.177,-0.331C0.177,-0.302 0.183,-0.274 0.195,-0.245C0.207,-0.217 0.222,-0.192 0.243,-0.171C0.286,-0.126 0.338,-0.104 0.399,-0.104C0.461,-0.104 0.514,-0.126 0.557,-0.171C0.6,-0.216 0.622,-0.27 0.622,-0.333C0.622,-0.364 0.616,-0.394 0.605,-0.422C0.594,-0.451 0.578,-0.475 0.557,-0.496C0.513,-0.541 0.46,-0.563 0.4,-0.563Z" style="fill:#fff;fill-rule:nonzero;"/>
        </g>
        <g transform="matrix(33.3333,0,0,33.3333,513.967,41.9837)">
            <path d="M0.573,-0.218L0.573,-0.632C0.573,-0.647 0.575,-0.657 0.579,-0.661C0.583,-0.665 0.592,-0.667 0.607,-0.667L0.668,-0.667C0.683,-0.667 0.693,-0.665 0.697,-0.661C0.701,-0.657 0.703,-0.647 0.703,-0.632L0.703,-0.021C0.703,-0.006 0.701,0.003 0.697,0.007C0.693,0.011 0.683,0.013 0.668,0.013L0.636,0.013C0.624,0.013 0.616,0.013 0.614,0.011C0.611,0.01 0.606,0.005 0.598,-0.004L0.207,-0.451L0.207,-0.035C0.207,-0.019 0.205,-0.01 0.201,-0.006C0.197,-0.002 0.187,0 0.172,0L0.111,0C0.096,0 0.086,-0.002 0.083,-0.006C0.079,-0.01 0.077,-0.019 0.077,-0.035L0.077,-0.647C0.077,-0.663 0.079,-0.672 0.083,-0.676C0.086,-0.68 0.096,-0.682 0.111,-0.682L0.144,-0.682C0.156,-0.682 0.163,-0.682 0.166,-0.68C0.168,-0.679 0.174,-0.674 0.182,-0.665L0.573,-0.218Z" style="fill:#fff;fill-rule:nonzero;"/>
        </g>
        <g transform="matrix(33.3333,0,0,33.3333,539.943,41.9837)">
            <path d="M0.45,-0.578L0.425,-0.545C0.415,-0.532 0.407,-0.526 0.4,-0.526C0.396,-0.526 0.393,-0.527 0.391,-0.528C0.388,-0.53 0.381,-0.536 0.369,-0.546C0.362,-0.552 0.35,-0.557 0.335,-0.562C0.32,-0.566 0.307,-0.568 0.294,-0.568C0.265,-0.568 0.242,-0.56 0.224,-0.544C0.208,-0.53 0.2,-0.513 0.2,-0.494C0.2,-0.476 0.207,-0.461 0.221,-0.449C0.236,-0.438 0.262,-0.425 0.301,-0.411C0.338,-0.397 0.366,-0.386 0.384,-0.377C0.403,-0.367 0.419,-0.356 0.435,-0.344C0.474,-0.311 0.494,-0.264 0.494,-0.204C0.494,-0.132 0.468,-0.075 0.418,-0.035C0.376,-0.001 0.323,0.016 0.261,0.016C0.211,0.016 0.166,0.004 0.125,-0.021C0.103,-0.034 0.083,-0.049 0.066,-0.067C0.048,-0.085 0.039,-0.099 0.039,-0.108C0.039,-0.114 0.044,-0.122 0.055,-0.132L0.088,-0.165C0.099,-0.175 0.107,-0.18 0.112,-0.18C0.119,-0.18 0.125,-0.177 0.13,-0.17C0.145,-0.152 0.155,-0.141 0.159,-0.137C0.163,-0.133 0.17,-0.128 0.18,-0.123C0.205,-0.109 0.23,-0.103 0.257,-0.103C0.291,-0.103 0.317,-0.113 0.336,-0.135C0.352,-0.153 0.36,-0.173 0.36,-0.196C0.36,-0.224 0.348,-0.246 0.323,-0.264C0.312,-0.272 0.281,-0.285 0.231,-0.304C0.18,-0.322 0.143,-0.341 0.119,-0.362C0.084,-0.391 0.066,-0.432 0.066,-0.483C0.066,-0.554 0.096,-0.607 0.154,-0.645C0.189,-0.667 0.23,-0.678 0.275,-0.678C0.307,-0.678 0.339,-0.672 0.373,-0.661C0.406,-0.65 0.433,-0.635 0.454,-0.617C0.46,-0.613 0.462,-0.607 0.462,-0.601C0.462,-0.596 0.458,-0.588 0.45,-0.578Z" style="fill:#fff;fill-rule:nonzero;"/>
        </g>
    </g>
</svg>
